<svg width="357" height="357" viewBox="0 0 357 357" fill="none" xmlns="http://www.w3.org/2000/svg">
<path fill-rule="evenodd" clip-rule="evenodd" d="M1.39181 1.39453C0.022269 2.76675 0 3.71852 0 60.2626V117.737L1.83371 119.182C4.20954 121.054 5.25479 121.003 7.33833 118.915L9.04678 117.204V63.1339V9.06445H63.0108H116.976L118.683 7.35267C120.768 5.26505 120.818 4.21776 118.949 1.83729L117.507 0H60.1451C3.71127 0 2.76136 0.0223125 1.39181 1.39453ZM237.304 1.39453C235.673 3.02892 235.509 5.4561 236.9 7.36243C237.861 8.67956 239.356 8.7207 292.572 8.90269L347.257 9.08955V63.3556C347.257 115.043 347.318 117.677 348.53 118.776C351.109 121.114 355.119 119.739 355.977 116.22C356.181 115.384 356.26 89.5533 356.152 58.8178C355.963 4.99103 355.907 2.8811 354.63 1.46774L353.305 0H296C239.624 0 238.674 0.0223125 237.304 1.39453ZM166.018 86.516C119.573 90.9485 68.6929 120.341 25.64 167.61C15.9161 178.286 15.9411 177.925 24.2614 187.265C33.2281 197.33 47.742 211.325 58.0066 219.802C94.7602 250.155 132.119 266.997 170.723 270.619C179.142 271.409 188.149 270.753 201.259 268.396C245.421 260.454 293.306 230.749 332.043 187.265C340.363 177.925 340.388 178.286 330.664 167.61C290.124 123.101 242.37 94.2347 198.115 87.4873C189.189 86.1269 174.692 85.6877 166.018 86.516ZM170.497 95.2737C169.54 95.4145 166.409 95.8775 163.538 96.3028C148.261 98.5662 131.465 107.147 119.741 118.676C101.462 136.654 92.5194 160.589 94.6969 185.711C98.0323 224.199 128.322 256.282 165.626 260.841C176.162 262.128 192.369 261.275 200.073 259.026C221.63 252.734 239.107 239.235 250.165 220.336C269.088 187.993 263.623 146.289 236.962 119.575C223.987 106.576 207.732 98.4239 189.646 95.8468C183.179 94.9257 174.61 94.6692 170.497 95.2737ZM108.472 113.557C94.3872 120.807 77.0361 132.616 61.4833 145.537C51.685 153.677 28.5322 176.633 28.5322 178.207C28.5322 179.719 52.9174 203.915 61.8974 211.313C72.2163 219.816 81.8414 226.848 91.8903 233.226C99.7631 238.224 112.667 245.438 113.733 245.438C114.026 245.438 112.04 243.049 109.318 240.129C104.055 234.481 98.2836 226.185 94.7943 219.248C91.7754 213.246 87.9612 201.431 86.6877 194.14C85.2875 186.117 85.2785 170.935 86.6696 162.966C89.7371 145.397 97.9245 128.941 109.905 116.269C113.076 112.914 115.533 110.168 115.363 110.168C115.193 110.168 112.092 111.693 108.472 113.557ZM241.681 111.572C246.189 115.125 256.252 128.678 260.184 136.491C267.11 150.253 270.179 163.156 270.179 178.5C270.179 202.012 262.63 221.632 246.319 240.509L241.239 246.386L248.84 242.326C263.721 234.377 279.418 223.659 294.716 210.999C303.966 203.345 327.772 179.718 327.772 178.192C327.772 176.622 304.55 153.619 294.716 145.45C278.721 132.159 262.575 121.181 247.802 113.552C240.824 109.948 238.784 109.288 241.681 111.572ZM167.366 130.129C164.686 130.691 159.519 132.61 155.883 134.394C150.407 137.082 148.247 138.663 143.298 143.603C138.346 148.548 136.768 150.698 134.062 156.19C126.888 170.751 126.884 185.508 134.049 200.115C136.746 205.613 138.316 207.759 143.285 212.738C148.254 217.716 150.397 219.29 155.883 221.993C164.503 226.238 170.724 227.546 180.24 227.113C215.986 225.485 237.61 187.945 221.495 155.49C219.535 151.542 217.355 148.702 212.595 143.9C207.2 138.457 205.342 137.082 199.703 134.355C189.076 129.218 178.381 127.82 167.366 130.129ZM168.262 139.14C154.249 142.545 142.558 154.174 138.863 168.386C137.494 173.655 137.487 182.598 138.849 187.941C142.458 202.105 153.897 213.567 168.034 217.183C172.897 218.427 181.419 218.563 186.643 217.479C200.308 214.645 213.182 202.243 216.716 188.51C218.09 183.17 218.128 173.101 216.792 168.072C213.044 153.96 201.28 142.473 187.162 139.139C181.68 137.845 173.595 137.845 168.262 139.14ZM350.26 236.425C349.424 236.736 348.406 237.616 347.998 238.38C347.493 239.327 347.257 256.917 347.257 293.851V347.936H292.977C239.624 347.936 238.672 347.959 237.304 349.33C235.556 351.082 235.536 352.894 237.243 355.005L238.573 356.651H295.991H353.408L355.204 354.961L357 353.27V296.035V238.8L355.434 237.761C352.918 236.091 351.876 235.822 350.26 236.425ZM1.91374 237.126C0.768977 237.794 0.695906 241.375 0.695906 296.697C0.695906 354.176 0.727222 355.573 2.04179 356.278C2.93881 356.759 22.4618 357 60.4979 357C116.681 357 117.63 356.978 119 355.605C120.779 353.823 120.779 351.113 119 349.33C117.632 347.959 116.681 347.936 63.34 347.936H9.07184L8.88533 293.144C8.7037 239.824 8.66264 238.325 7.34808 237.362C5.77533 236.211 3.64168 236.118 1.91374 237.126Z" fill="#E6E6E6"/>
</svg>
