<svg width="230" height="230" fill="none" xmlns="http://www.w3.org/2000/svg"><path fill-rule="evenodd" clip-rule="evenodd" d="M.897.898C.014 1.782 0 2.396 0 38.825v37.028l1.181.93c1.531 1.207 2.204 1.174 3.547-.171l1.1-1.102V5.84h69.534l1.1-1.103c1.343-1.345 1.376-2.02.172-3.553L75.705 0H38.749C2.39 0 1.779.014.897.898zm151.988 0c-1.051 1.053-1.157 2.617-.261 3.845.62.849 1.583.875 35.868.993l35.231.12v34.961c0 33.3.039 34.997.82 35.705 1.662 1.507 4.245.62 4.798-1.646.131-.539.182-17.18.112-36.982-.121-34.678-.157-36.038-.98-36.948L227.619 0H190.7c-36.321 0-36.933.014-37.815.898zm-45.926 54.84c-29.923 2.856-62.703 21.793-90.44 52.246-6.265 6.878-6.249 6.645-.888 12.663 5.776 6.485 15.127 15.501 21.74 20.962 23.679 19.555 47.747 30.406 72.619 32.74 5.424.508 11.226.086 19.673-1.433 28.451-5.116 59.302-24.254 84.258-52.269 5.36-6.018 5.377-5.785-.888-12.663-26.118-28.675-56.885-47.272-85.396-51.62-5.75-.876-15.09-1.16-20.678-.625zm2.885 5.643c-.616.09-2.634.389-4.483.663-9.842 1.458-20.664 6.986-28.217 14.414C65.368 88.04 59.606 103.46 61.01 119.646c2.15 24.796 21.663 45.466 45.697 48.403 6.788.829 17.229.279 22.193-1.17 13.888-4.053 25.148-12.75 32.272-24.926 12.191-20.837 8.67-47.705-8.507-64.916-8.359-8.375-18.831-13.627-30.483-15.287-4.166-.593-9.687-.759-12.337-.37zM69.884 73.16c-9.074 4.67-20.253 12.28-30.273 20.604-6.313 5.244-21.229 20.033-21.229 21.047 0 .974 15.71 16.563 21.496 21.329 6.648 5.478 12.849 10.008 19.323 14.118 5.072 3.219 13.385 7.867 14.073 7.867.188 0-1.092-1.539-2.845-3.42-3.39-3.639-7.11-8.984-9.357-13.453-1.945-3.867-4.402-11.479-5.223-16.176-.902-5.169-.908-14.95-.011-20.084 1.976-11.32 7.25-21.92 14.969-30.085 2.043-2.161 3.626-3.93 3.517-3.93-.11 0-2.108.982-4.44 2.183zm85.821-1.279c2.904 2.29 9.387 11.02 11.921 16.055 4.462 8.866 6.439 17.178 6.439 27.064 0 15.148-4.863 27.788-15.372 39.949l-3.273 3.787 4.897-2.615c9.588-5.122 19.7-12.027 29.556-20.183 5.96-4.931 21.297-20.153 21.297-21.137 0-1.011-14.962-15.83-21.297-21.094-10.305-8.563-20.707-15.635-30.225-20.55-4.495-2.322-5.81-2.747-3.943-1.276zm-47.878 11.955c-1.727.362-5.056 1.6-7.398 2.749-3.528 1.731-4.92 2.75-8.108 5.933-3.19 3.185-4.207 4.57-5.95 8.108-4.622 9.381-4.625 18.889-.009 28.3 1.738 3.542 2.75 4.924 5.95 8.132 3.202 3.207 4.582 4.221 8.117 5.962 5.553 2.736 9.561 3.578 15.692 3.299 23.03-1.049 36.961-25.234 26.579-46.143-1.263-2.544-2.668-4.373-5.734-7.467-3.476-3.507-4.673-4.393-8.306-6.15-6.847-3.31-13.737-4.21-20.833-2.723zm.577 5.806c-9.028 2.194-16.56 9.686-18.94 18.842-.883 3.394-.887 9.156-.01 12.598 2.325 9.126 9.695 16.51 18.803 18.84 3.133.801 8.624.889 11.989.191 8.804-1.826 17.098-9.816 19.375-18.664.885-3.44.909-9.927.049-13.167-2.415-9.092-9.994-16.493-19.089-18.64-3.532-.835-8.741-.834-12.177 0zm117.254 62.676c-.539.201-1.195.768-1.457 1.26-.326.61-.478 11.942-.478 35.738v34.844h-34.971c-34.373 0-34.986.015-35.867.899-1.126 1.128-1.139 2.296-.039 3.656l.856 1.06h73.984l1.157-1.089 1.157-1.089v-73.748l-1.009-.669c-1.621-1.077-2.292-1.25-3.333-.862zm-224.425.452c-.738.431-.785 2.738-.785 38.379 0 37.032.02 37.932.867 38.386.578.31 13.156.465 37.661.465 36.196 0 36.808-.014 37.69-.898 1.147-1.149 1.147-2.895 0-4.043-.88-.884-1.494-.899-35.859-.899H5.845l-.12-35.3c-.118-34.352-.144-35.317-.99-35.937-1.014-.743-2.389-.802-3.502-.153z" fill="#E6E6E6"/></svg>