<svg width="794" height="520" fill="none" xmlns="http://www.w3.org/2000/svg"><rect x="11" width="771" height="520" rx="32" fill="#E6E6E6" fill-opacity=".05"/><rect x="11.5" y=".5" width="770" height="519" rx="31.5" stroke="#E6E6E6" stroke-opacity=".4"/><path stroke="#818085" d="M394.5 0v520M526.5 0v520M658.5 0v520M262.5 0v520M130.5 0v520"/><g filter="url(#a)"><path d="M12 462.216c24.726 0 75.09-6.801 118.564-23.553 58.359-22.488 83.367-52.049 133.72-90.025 54.59-41.172 72.469-84.17 133.721-113.578 48.711-23.387 85.328-8.886 133.72-32.974 62.424-31.074 71.262-88.855 132.711-121.953C706.857 57.283 781 41.401 781 41.401" stroke="#C9AFFA" stroke-width="2"/></g><ellipse cx="131" cy="438.342" rx="4" ry="3.979" fill="#C9AFFA"/><ellipse cx="262" cy="351.791" rx="4" ry="3.979" fill="#C9AFFA"/><ellipse cx="394" cy="237.385" rx="4" ry="3.979" fill="#C9AFFA"/><ellipse cx="526" cy="204.556" rx="4" ry="3.979" fill="#C9AFFA"/><ellipse cx="658" cy="84.18" rx="4" ry="3.979" fill="#C9AFFA"/><defs><filter id="a" x="0" y="28.424" width="793.209" height="446.792" filterUnits="userSpaceOnUse" color-interpolation-filters="sRGB"><feFlood flood-opacity="0" result="BackgroundImageFix"/><feColorMatrix in="SourceAlpha" values="0 0 0 0 0 0 0 0 0 0 0 0 0 0 0 0 0 0 127 0" result="hardAlpha"/><feOffset/><feGaussianBlur stdDeviation="6"/><feComposite in2="hardAlpha" operator="out"/><feColorMatrix values="0 0 0 0 0.788235 0 0 0 0 0.686275 0 0 0 0 0.980392 0 0 0 0.8 0"/><feBlend in2="BackgroundImageFix" result="effect1_dropShadow_496_19"/><feBlend in="SourceGraphic" in2="effect1_dropShadow_496_19" result="shape"/></filter></defs></svg>